<svg xmlns="http://www.w3.org/2000/svg" width="82.248" height="168.325" viewBox="0 0 82.248 168.325">
  <g id="그룹_606" data-name="그룹 606" transform="translate(-385.024 -160.779)">
    <g id="그룹_355" data-name="그룹 355">
      <path id="패스_619" data-name="패스 619" d="M459.371,197.622a2.109,2.109,0,0,0,1.86-1.293,5.144,5.144,0,0,0,.436-2.553,8.2,8.2,0,0,0-2.045-5.1c-1.2-1.3-2.85-4.051-4.519-4.019" fill="#7c3432"/>
      <g id="그룹_353" data-name="그룹 353">
        <path id="패스_620" data-name="패스 620" d="M461.919,204.574l-1.372-.647-1.719-1.134-.82-1.041-.433-1.027.085-1.211-.143-1.113.029-.809.4-.982,2.611-.966a4.8,4.8,0,0,1,3.574,1.975,5.269,5.269,0,0,1,.682,4.168,4.263,4.263,0,0,1-.956,1.951,2.342,2.342,0,0,1-1.942.836" fill="#7c3432"/>
        <path id="패스_621" data-name="패스 621" d="M460.108,197.7a2.529,2.529,0,0,0-.155-.786,1.147,1.147,0,0,0-.862-.75c-1.111-.134-1.734.951-2.049,1.791a5.136,5.136,0,0,0-.347,3.415,4.9,4.9,0,0,0,.544,1.346,5.147,5.147,0,0,0,4.442,2.218c1.3-.007-.951-2.229-1.107-2.514a4.71,4.71,0,0,1-.4-2.162l-.053-2.163c-.007-.3-.041-.59-.057-.887a.237.237,0,0,1,.031-.16c.046-.057.131-.057.2-.06a1.086,1.086,0,0,0,.725-.32,5.9,5.9,0,0,1-1.585-2.271c-.019-.05-.043-.106-.094-.122-.078-.026-.146.057-.186.129-.4.721-.741,1.47-1.084,2.218a7.787,7.787,0,0,0-.492,1.259,3.907,3.907,0,0,0-.106,1.412" fill="#632a2a"/>
        <path id="패스_622" data-name="패스 622" d="M460.855,198.765a2.111,2.111,0,0,0,.375,1l1.356,2.316a2.08,2.08,0,0,0,.355.488,1.446,1.446,0,0,0,.157-1.152,1.794,1.794,0,0,0-.238-.612c-.46-.707-1.594-.976-1.866-1.767" fill="#632a2a"/>
        <path id="패스_623" data-name="패스 623" d="M462.476,200.836a1.23,1.23,0,0,1-.393-.791,2.888,2.888,0,0,1,.407-1.427,1.416,1.416,0,0,0,.062.768,3.392,3.392,0,0,1,.017,1.916" fill="#632a2a"/>
      </g>
      <path id="패스_624" data-name="패스 624" d="M450.8,188.759a8.429,8.429,0,0,0,.663,5.9,7.758,7.758,0,0,0,1.014,1.6,6.343,6.343,0,0,0,5.542,2.186c.656-.082.3-.866-.017-1.153a3.814,3.814,0,0,0-.936-.55,7.611,7.611,0,0,1-4.389-6.351" fill="#632a2a"/>
      <path id="패스_625" data-name="패스 625" d="M455.33,191.141a3.347,3.347,0,0,0,.72,1.192l2.2,2.708a3.191,3.191,0,0,0,.54.561,2.054,2.054,0,0,0-.187-1.454,2.876,2.876,0,0,0-.451-.731c-.723-.82-2.045-1.009-2.589-1.957" fill="#632a2a"/>
      <path id="패스_626" data-name="패스 626" d="M457.746,193.509a1.936,1.936,0,0,1-.676-.934,3.847,3.847,0,0,1,0-1.829,2.167,2.167,0,0,0,.307.948,5.109,5.109,0,0,1,.616,2.384" fill="#632a2a"/>
      <path id="패스_627" data-name="패스 627" d="M462.112,204.7a4.146,4.146,0,0,0-.751,2.331,4.491,4.491,0,0,0,.714,1.838,4.816,4.816,0,0,1,.746,1.827,2.444,2.444,0,0,1-1.272,1.955c.686.549,1.81.25,2.532.269a2.559,2.559,0,0,0,1.962-.747,2.8,2.8,0,0,0,.337-2.283,1.123,1.123,0,0,0,.889-1.185,3.258,3.258,0,0,0-.631-1.988,7.314,7.314,0,0,0-1.49-1.5,3.6,3.6,0,0,0-.832-.537,1.377,1.377,0,0,0-.969-.07" fill="#7c3432"/>
      <g id="그룹_354" data-name="그룹 354">
        <path id="패스_628" data-name="패스 628" d="M466.456,210.266a1.94,1.94,0,0,0-.076-.377,1.123,1.123,0,0,0,.889-1.185,2.921,2.921,0,0,0-.254-1.286l-.063.45c-.032.229-.089.494-.3.593-.228.108-.489-.049-.677-.216s-.4-.363-.647-.343a3.753,3.753,0,0,1,1.076,2.337Z" fill="#632a2a"/>
        <path id="패스_629" data-name="패스 629" d="M463.584,210.851a4.054,4.054,0,0,0-.31-1.927,8.706,8.706,0,0,1-.566-1.886,2.131,2.131,0,0,1,.548-1.819l-1.069-.525-.075.005a4.146,4.146,0,0,0-.751,2.331,4.491,4.491,0,0,0,.714,1.838,4.816,4.816,0,0,1,.746,1.827,2.329,2.329,0,0,1-.788,1.614,1.314,1.314,0,0,0,.375-.023A1.68,1.68,0,0,0,463.584,210.851Z" fill="#632a2a"/>
      </g>
      <path id="패스_630" data-name="패스 630" d="M464.412,203.685l-.089-.042a1.814,1.814,0,0,0-.608-.008,4.174,4.174,0,0,0-.743.109,6.327,6.327,0,0,0-1.354.51c-.366.183-.748.426-.789.762a.134.134,0,0,0,.023.106.221.221,0,0,0,.123.057,1.8,1.8,0,0,0,.837-.085,13.1,13.1,0,0,0,1.7-.587C463.772,204.4,464.968,203.947,464.412,203.685Z" fill="#ff6183"/>
      <path id="패스_631" data-name="패스 631" d="M465.047,204.558a.182.182,0,0,0-.016-.078.458.458,0,0,0-.21-.191,1.988,1.988,0,0,0-1.713.038,7.7,7.7,0,0,0-.707.383c-.29.158-.621.263-.9.436-.148.092-.3.229-.24.367a.406.406,0,0,0,.289.17,2.7,2.7,0,0,0,1.105-.062,7.5,7.5,0,0,0,2.047-.683C464.871,204.846,465.046,204.707,465.047,204.558Z" fill="#ff6183"/>
    </g>
    <g id="그룹_357" data-name="그룹 357">
      <g id="그룹_356" data-name="그룹 356">
        <path id="패스_632" data-name="패스 632" d="M416.158,325.188c.124-1.032.3-3.258.364-4.8.069-1.562-1.193-24.032-1.267-24.034,0,0,9.569-5.452,9.378.511s-.948,8.574-2.463,22.542c-.13,1.206-.441,2.577.723,3.292a22.847,22.847,0,0,0,3.338,1.012,4.962,4.962,0,0,1,2.323,1.53c.52.7.119,1.614.185,2.479a.466.466,0,0,1-.061.335.52.52,0,0,1-.391.136,30.75,30.75,0,0,1-5.126-.273,16.821,16.821,0,0,1-2.989-.468,16.374,16.374,0,0,1-3.813-1.833.458.458,0,0,1-.172-.144A.444.444,0,0,1,416.158,325.188Z" fill="#ffdbbb"/>
      </g>
      <path id="패스_633" data-name="패스 633" d="M425.15,323.322A9.287,9.287,0,0,1,423,322.6a2.77,2.77,0,0,1-.621-.5,7.37,7.37,0,0,1,0-2.56c.131-.448.417-1.133.182-1.351s-.667.162-.824.6a.58.58,0,1,0-1.146-.012.9.9,0,0,0-.821-.682.846.846,0,0,0-.819.666.656.656,0,0,0-.619-.8.807.807,0,0,0-.734.769,1.013,1.013,0,0,0-.663-.861.654.654,0,0,0-.819.557,1.389,1.389,0,0,0,.07.37,6.077,6.077,0,0,1,.027,2.14q-.148,1.5-.21,3.008a3.74,3.74,0,0,0,.1,1.259,2.432,2.432,0,0,0,.5.858,5.3,5.3,0,0,0,2.571,1.455,16.708,16.708,0,0,0,6.993.443c.135-.018.269-.038.4-.058" fill="#ff6183"/>
      <path id="패스_634" data-name="패스 634" d="M416.069,322.718a4.369,4.369,0,0,0,2.558,2.346,5.907,5.907,0,0,1,2.383-2.89,2.844,2.844,0,0,1,1.422-.287,1.568,1.568,0,0,1,.618.709c-1.285.133-2.923,1.895-2.816,2.992a9.4,9.4,0,0,0,1.55.395,1.616,1.616,0,0,0,1.092-.291,4.054,4.054,0,0,0,.8-1.028,5.315,5.315,0,0,1,1.311-1.477,6.118,6.118,0,0,1,1.662.5,4.2,4.2,0,0,1,1.836,1.416,4.022,4.022,0,0,1,.652,1.643,3.2,3.2,0,0,1-.077,1.192c-.224.81-2.557,1.321-4.484,1.116-1.773-.188-6-.488-8.176-2.274C415.745,326.249,415.584,322.661,416.069,322.718Z" fill="#b72a71"/>
    </g>
    <g id="그룹_359" data-name="그룹 359">
      <g id="그룹_358" data-name="그룹 358">
        <path id="패스_635" data-name="패스 635" d="M434.25,323.6c.124-1.032.3-3.258.363-4.8.069-1.562-1.192-24.032-1.266-24.034,0,0,9.569-5.452,9.378.511s-.948,8.574-2.463,22.542c-.13,1.206-.441,2.577.722,3.292a22.893,22.893,0,0,0,3.339,1.012,4.97,4.97,0,0,1,2.323,1.53c.52.705.119,1.614.185,2.479a.466.466,0,0,1-.061.335.521.521,0,0,1-.392.136,30.64,30.64,0,0,1-5.125-.273,16.719,16.719,0,0,1-2.989-.468,16.334,16.334,0,0,1-3.813-1.833.449.449,0,0,1-.172-.144A.444.444,0,0,1,434.25,323.6Z" fill="#ffdbbb"/>
      </g>
      <path id="패스_636" data-name="패스 636" d="M443.242,321.739a9.337,9.337,0,0,1-2.153-.726,2.8,2.8,0,0,1-.621-.5,7.372,7.372,0,0,1,0-2.56c.13-.448.417-1.133.181-1.351s-.666.162-.823.6a.58.58,0,1,0-1.146-.012.9.9,0,0,0-.821-.682.846.846,0,0,0-.819.666.655.655,0,0,0-.619-.794.805.805,0,0,0-.734.768,1.014,1.014,0,0,0-.663-.861.654.654,0,0,0-.819.557,1.383,1.383,0,0,0,.07.37,6.076,6.076,0,0,1,.027,2.14q-.148,1.5-.21,3.008a3.748,3.748,0,0,0,.1,1.26,2.427,2.427,0,0,0,.5.857,5.288,5.288,0,0,0,2.571,1.455,16.709,16.709,0,0,0,6.993.443c.135-.018.269-.038.4-.057" fill="#ff6183"/>
      <path id="패스_637" data-name="패스 637" d="M434.161,321.134a4.369,4.369,0,0,0,2.558,2.346,5.912,5.912,0,0,1,2.383-2.89,2.844,2.844,0,0,1,1.422-.287,1.567,1.567,0,0,1,.618.709c-1.285.133-2.923,1.9-2.816,2.992a9.4,9.4,0,0,0,1.55.395,1.616,1.616,0,0,0,1.092-.291,4.036,4.036,0,0,0,.8-1.028,5.315,5.315,0,0,1,1.311-1.477,6.118,6.118,0,0,1,1.662.505,4.208,4.208,0,0,1,1.836,1.416,4.036,4.036,0,0,1,.652,1.643,3.183,3.183,0,0,1-.078,1.192c-.223.81-2.556,1.321-4.483,1.117-1.773-.189-6-.488-8.176-2.275C433.837,324.665,433.676,321.077,434.161,321.134Z" fill="#b72a71"/>
    </g>
    <path id="패스_638" data-name="패스 638" d="M457.71,294.78c-.094,1.512-.64,3.633-2.124,3.937a4.7,4.7,0,0,1-4.145-1.363,3.565,3.565,0,0,1-6.446-.28,3.432,3.432,0,0,1-2.881,3.1c-1.182.116-3.043-.263-3.726-1.234a3.286,3.286,0,0,1-2.891,2.654,6.157,6.157,0,0,1-4-1.093,3.758,3.758,0,0,1-6.281.943,3.229,3.229,0,0,1-2.848,1.452,4.592,4.592,0,0,1-3.239-2.084,3,3,0,0,1-5.374-1.037,4.3,4.3,0,0,1-3.774,1.424c-1.389-.192-3.37-.913-3.592-2.74-.553,1.716-2.718,1.75-3.985,1.495s-2.861-1.495-2.861-2.936c-.9,1.22-3.571.94-4.668.223-1.61-1.052.116-4.379,1.178-5.148l3.49-1.039,5.1-2.8s-1.965-2.2,3.882-2.882l5.848-.677,1.441.508" fill="#b72a71"/>
    <g id="그룹_361" data-name="그룹 361">
      <g id="그룹_360" data-name="그룹 360">
        <path id="패스_639" data-name="패스 639" d="M463.626,213.7c-.786-2.723-2.86-5.029-3.924-7.712-1.543-3.894-.446-7.955-1.331-11.9-.262-1.169-1.005-2.136-1.176-3.333-.282-1.978.338-4.022.23-6.016-.373-6.865-7.471-11.451-12.734-14.775a82.633,82.633,0,0,0-9.439-5.157,26.434,26.434,0,0,0-7.163-2.546,7.274,7.274,0,0,1-1.126-.035c-15.47-5.825-30.111,8.446-34.194,14.839-4.335,6.785-7.585,18.1-7.11,26.555.131,2.346.928,4.657.756,7.022-.152,2.084-1.66,4.007-1.348,6.109a8.521,8.521,0,0,0,3.8,5.688,12.846,12.846,0,0,0,6.612,1.953,3.34,3.34,0,0,1,.946.119,3.4,3.4,0,0,1,1.038.684c3.02,2.506,7.056,4.072,10.947,3.134a16.521,16.521,0,0,1,4.559-.828c1.644.075,3.29.831,4.884.415a3.751,3.751,0,0,0,1.074-.477,2.182,2.182,0,0,1,2.2-.094,14.922,14.922,0,0,0,11.674,0,2.182,2.182,0,0,1,2.2.094,3.752,3.752,0,0,0,1.074.477,8.209,8.209,0,0,0,4.645-.659,6.214,6.214,0,0,1,3.552.171,14.581,14.581,0,0,0,2.688.243c2.093.139,4.211.831,6.011-.707,1-.855,1.518-2.2,2.611-2.938,1.378-.925,3.251-.609,4.783-1.248a6.245,6.245,0,0,0,3.232-4.378,9.243,9.243,0,0,0,.289-3.465A7.947,7.947,0,0,0,463.626,213.7Zm-31.56,8.989a15.573,15.573,0,0,0-10.207,0,9.753,9.753,0,0,0-1.97-8.268l4.5-33.227,9.645,33.227A9.757,9.757,0,0,0,432.066,222.684Z" fill="#7c3432"/>
      </g>
    </g>
    <path id="패스_640" data-name="패스 640" d="M462.47,217.839a4.174,4.174,0,0,1-4.2,1.195,2.616,2.616,0,0,1-1.265-.742,2.777,2.777,0,0,1-.455-2.226,49.048,49.048,0,0,1,1.317-4.772,5.464,5.464,0,0,0-.674-4.738,6.387,6.387,0,0,1-1.14-1.458,3.289,3.289,0,0,1-.113-1.435,50.616,50.616,0,0,0,.024-6.232,13.485,13.485,0,0,0,2.79.267l-.046-4.512L439.6,195.731a49.231,49.231,0,0,0-8.209,9.572l2.645,9.113a9.757,9.757,0,0,0-1.971,8.268,13.848,13.848,0,0,0-4.43-.833,13.033,13.033,0,0,0,1.243,3.017,15.232,15.232,0,0,0,2.384,3.074,8.921,8.921,0,0,0,1.537-.6,2.182,2.182,0,0,1,2.2.094,3.752,3.752,0,0,0,1.074.477,8.209,8.209,0,0,0,4.645-.659,6.214,6.214,0,0,1,3.552.171,14.581,14.581,0,0,0,2.688.243c2.093.139,4.211.831,6.011-.707,1-.855,1.518-2.2,2.611-2.938,1.378-.925,3.251-.609,4.782-1.248a6.243,6.243,0,0,0,3.233-4.378,10.331,10.331,0,0,0,.325-2.1A6.468,6.468,0,0,0,462.47,217.839Z" fill="#632a2a"/>
    <path id="패스_641" data-name="패스 641" d="M425.228,221.921a13.011,13.011,0,0,0-3.369.763,9.893,9.893,0,0,0-1.306-7.377l-.007,0c-.039-.06-.081-.117-.12-.175a8.381,8.381,0,0,0-.537-.718l2.739-20.214c-.657-2.418-1.26-4.85-1.789-7.3-1.253-5.8-2.1-11.931-.324-17.593l-13.38,2.342c-3.613,4.138-11.483,31.532-11.882,32.136-1.532,2.324-4.821,4.851-4.252,7.576.416,2,1.863,3.585,2.934,5.319a3.262,3.262,0,0,1,.581,1.515,2.659,2.659,0,0,1-1.6,2.293c-2.081,1.069-4.526.406-6.666-.71.106.164.218.325.336.481l.015.02a9.359,9.359,0,0,0,1.2,1.306h-.006a9.484,9.484,0,0,0,1.076.846,12.846,12.846,0,0,0,6.612,1.953,3.34,3.34,0,0,1,.946.119,3.4,3.4,0,0,1,1.038.684c3.02,2.506,7.056,4.072,10.947,3.134a16.521,16.521,0,0,1,4.559-.828c1.644.075,3.29.831,4.884.415a3.751,3.751,0,0,0,1.074-.477,2.182,2.182,0,0,1,2.2-.094,11.7,11.7,0,0,0,4.1,1.1Z" fill="#632a2a"/>
    <g id="그룹_365" data-name="그룹 365">
      <path id="패스_642" data-name="패스 642" d="M399.482,273.1a13.274,13.274,0,0,1-.012,2.718,10.551,10.551,0,0,1-.362,2.138c-.092.283-.268.64-.594.719-.352.086-.5-.189-.534-.472-.051-.4.2-1.077-.373-1.251s-.8,3.011-1.182,3.247c-.3.181-.711-.788-.709-1.318s-.135-1.58-.135-1.58-.13,3.22-.526,3.125c-.957-.23-.823-3.224-.823-3.224s-.017,2.608-.421,2.622c-.831.029-.77-3.027-.77-3.027s.09,2.576-.366,2.593c-1.2.047-1.076-3.306-.615-4.425a11.575,11.575,0,0,1,4.345-4.707" fill="#ffd5b8"/>
      <g id="그룹_362" data-name="그룹 362">
        <path id="패스_643" data-name="패스 643" d="M395.61,276.313c-.1.166-.158.268-.084.452a.093.093,0,0,0,.152.04c.154-.131.146-.226.137-.436a.111.111,0,0,0-.205-.056Z" fill="#f9b995"/>
      </g>
      <g id="그룹_363" data-name="그룹 363">
        <path id="패스_644" data-name="패스 644" d="M394.082,276.385a.36.36,0,0,0,.047.341.07.07,0,0,0,.125-.016.557.557,0,0,0,.063-.293c.008-.133-.21-.165-.235-.032Z" fill="#f9b995"/>
      </g>
      <g id="그룹_364" data-name="그룹 364">
        <path id="패스_645" data-name="패스 645" d="M392.918,275.942a.665.665,0,0,0-.066.661.17.17,0,0,0,.308-.04,3.605,3.605,0,0,0,.017-.55.14.14,0,0,0-.259-.071Z" fill="#f9b995"/>
      </g>
    </g>
    <path id="패스_646" data-name="패스 646" d="M393.8,271.6a1.45,1.45,0,0,0-.388.272.5.5,0,0,0-.139.436.709.709,0,0,0,.277.354,8.347,8.347,0,0,0,5.374,1.847,3.6,3.6,0,0,0,.965-.127.316.316,0,0,0,.181-.106.342.342,0,0,0,.046-.161,10.313,10.313,0,0,0,.059-1.1" fill="#b72a71"/>
    <g id="그룹_366" data-name="그룹 366">
      <path id="패스_647" data-name="패스 647" d="M449.482,205.819a3.393,3.393,0,0,1,4.266-1.5,5.518,5.518,0,0,1,3.054,3.731,5.332,5.332,0,0,1,.227,1.551c-.039,2.1-1.757,3.855-3.682,4.7a5.809,5.809,0,0,1-3.412.51,3.373,3.373,0,0,1-2.588-2.114" fill="#f9b995"/>
    </g>
    <path id="패스_648" data-name="패스 648" d="M426.359,222.452c.511,4.411-.891,6.152-5.008,7.019,0,0-.258,6.079,7.663,7.017,3.257.385,8.33-3.164,9.283-6.155-3.471-.629-4.928-4.6-3.836-7.49" fill="#ffd5b8"/>
    <path id="패스_649" data-name="패스 649" d="M427.659,225.489a21.245,21.245,0,0,0,5.716.037,2.244,2.244,0,0,1-2.214,1.451,4.467,4.467,0,0,1-1.078-.25,14.264,14.264,0,0,1-2.424-1.238" fill="#f9b995"/>
    <path id="패스_650" data-name="패스 650" d="M455.261,200.06c-1-5.634-3.318-10.844-5.34-16.122-1.181-3.081-2.524-6.508-5.291-7.8l-1.27-.1a10.8,10.8,0,0,0-7.649-2.056l-8.748.715-8.748-.715a10.8,10.8,0,0,0-7.649,2.056l-1.27.1c-2.767,1.288-4.11,4.715-5.291,7.8-2.022,5.278-4.338,10.488-5.34,16.122s-.516,11.914,2.637,16.463c3.263,4.707,9.9,7.486,15.149,8.451a57.135,57.135,0,0,0,21.417-.075c5.322-1.122,11.347-3.458,14.755-8.376C455.776,211.974,456.263,205.7,455.261,200.06Z" fill="#ffd5b8"/>
    <path id="패스_651" data-name="패스 651" d="M409.553,184.73a49.469,49.469,0,0,0-6.421,12.453c-1.327,4.285-1.922,9.588.24,13.7,1.525,2.9,4.513,5.653,3.79,9.236-.666,3.293-3.91,4.374-6.9,4.491a12.013,12.013,0,0,1-8.381-2.906,10.43,10.43,0,0,1-3.522-8.062,22.844,22.844,0,0,1,.784-4.3c1.138-4.812,6.786-7.94,6.739-12.885" fill="#7c3432"/>
    <path id="패스_652" data-name="패스 652" d="M400.394,209.785c.657,2.341,2.115,4.014,2.581,6.4a5.878,5.878,0,0,1,0,2.769,2.807,2.807,0,0,1-1.821,1.962c-1.146.316-2.306-.327-3.388-.82s-2.491-.8-3.352.019a3.815,3.815,0,0,1-.439.424,1.4,1.4,0,0,1-.893.181,4.284,4.284,0,0,1-3.461-3.067,12.583,12.583,0,0,1-.318-4.859,5.72,5.72,0,0,0-1.187,3.965c.257,2.568.609,3.38,2.545,5.1,2.265,2.013,6.58,2.871,9.608,2.753a5.927,5.927,0,0,0,4.091-1.264c1.758-1.343,2.159-3.942,1.643-5.993-.594-2.358-2.469-4.1-3.575-6.206a16.536,16.536,0,0,1-1.339-9.383C400.478,202.869,398.915,204.52,400.394,209.785Z" fill="#632a2a"/>
    <path id="패스_653" data-name="패스 653" d="M446.053,211.294c-.172-1.817,2.381-1.836,3.592-1.747,1.434.106,4.493.458,3.044,2.574-.956,1.4-3.455,1.744-4.966,1.289A2.49,2.49,0,0,1,446.053,211.294Z" fill="#ef9181"/>
    <path id="패스_654" data-name="패스 654" d="M420.15,211.294c.172-1.817-2.381-1.836-3.592-1.747-1.434.106-4.493.458-3.044,2.574.956,1.4,3.456,1.744,4.966,1.289A2.49,2.49,0,0,0,420.15,211.294Z" fill="#ef9181"/>
    <path id="패스_655" data-name="패스 655" d="M432.193,220.648a2.374,2.374,0,0,0,2.535-.117" fill="none" stroke="#f9b995" stroke-miterlimit="10" stroke-width="1"/>
    <g id="그룹_385" data-name="그룹 385">
      <g id="그룹_375" data-name="그룹 375">
        <g id="그룹_370" data-name="그룹 370">
          <path id="패스_659" data-name="패스 659" d="M450.11,199.7c-.725-1.893-3.525-2.864-4.868-.978-.139.2.129.432.318.318a3.154,3.154,0,0,1,2.314-.663,2.634,2.634,0,0,1,1.858,1.483c.1.206.462.061.378-.16Z" fill="#7c3432"/>
        </g>
      </g>
      <g id="그룹_384" data-name="그룹 384">
        <g id="그룹_376" data-name="그룹 376">
          <path id="패스_664" data-name="패스 664" d="M415.8,207.831c-3.894.317-4.392-5.735-.491-6.052s4.392,5.735.491,6.052Z" fill="#7c3432"/>
        </g>
        <g id="그룹_377" data-name="그룹 377">
          <path id="패스_665" data-name="패스 665" d="M415.688,206.495a1.7,1.7,0,0,1-.275-3.38,1.7,1.7,0,0,1,.275,3.38Z" fill="#512020"/>
        </g>
        <g id="그룹_378" data-name="그룹 378">
          <path id="패스_666" data-name="패스 666" d="M416.72,205.87a1.383,1.383,0,0,1-.223-2.756,1.383,1.383,0,0,1,.223,2.756Z" fill="#fff"/>
        </g>
        <g id="그룹_379" data-name="그룹 379">
          <path id="패스_667" data-name="패스 667" d="M412.509,199.7c.725-1.893,3.525-2.864,4.868-.978.139.2-.129.432-.318.318a3.154,3.154,0,0,0-2.314-.663,2.634,2.634,0,0,0-1.858,1.483c-.1.206-.462.061-.378-.16Z" fill="#7c3432"/>
        </g>
        <g id="그룹_380" data-name="그룹 380">
          <path id="패스_668" data-name="패스 668" d="M419.113,203.9a3.9,3.9,0,0,0-4.408-1.962c-1.736.511-2.242,2.137-2.82,3.673a.214.214,0,0,1-.418-.057,4.279,4.279,0,0,1,3.317-4.247,3.917,3.917,0,0,1,4.481,2.529.083.083,0,0,1-.152.064Z" fill="#7c3432"/>
        </g>
        <g id="그룹_381" data-name="그룹 381">
          <path id="패스_669" data-name="패스 669" d="M411.289,203.8c.114.133.154.319.291.434s.313.038.45.143a.122.122,0,0,1,.042.16l-.022.049a.172.172,0,0,1-.153.087c-.4-.008-.843-.427-.686-.852a.047.047,0,0,1,.078-.021Z" fill="#7c3432"/>
        </g>
        <g id="그룹_382" data-name="그룹 382">
          <path id="패스_670" data-name="패스 670" d="M411.088,204.552a.6.6,0,0,0,.382.222.7.7,0,0,1,.346.09.211.211,0,0,1,0,.357c-.377.287-.791-.262-.867-.588-.018-.074.083-.15.139-.081Z" fill="#7c3432"/>
        </g>
        <g id="그룹_383" data-name="그룹 383">
          <path id="패스_671" data-name="패스 671" d="M411.763,203.541a.621.621,0,0,0,.466.243c.191.039.16.3,0,.357a.488.488,0,0,1-.606-.582.078.078,0,0,1,.14-.018Z" fill="#7c3432"/>
        </g>
      </g>
    </g>
    <path id="패스_672" data-name="패스 672" d="M407.615,197.54a34.323,34.323,0,0,1,1.919-6.816,45.073,45.073,0,0,0-.857,6.652c2.7-.406,5.505-.764,8.4-1.068.2-2.591.517-6.4.554-5.729l.314,5.642q4.556-.457,9.364-.732c.568-.032,1.131-.057,1.7-.084.009-2.912.218-6.336.328-5.606.281,1.848.5,3.7.682,5.556q4.322-.186,8.451-.191c-.228-2.925-.661-6.379-.376-5.733a19.919,19.919,0,0,1,1.529,5.735c3.748.013,7.352.13,10.757.349-.31-4-1.056-8.933-.76-8.266a24.192,24.192,0,0,1,1.994,8.354c2.734.2,5.338.458,7.779.779,2.146-11.412-4.02-22.458-12.564-30.035-3.35-2.971-14.19-8.068-20.585-4.136-9.1-2.7-16.679.782-23.567,8.579-4.459,5.047-9.374,19.453-7.591,29.26C398.87,199.1,403.08,198.251,407.615,197.54Z" fill="#7c3432"/>
    <g id="그룹_389" data-name="그룹 389">
      <path id="패스_673" data-name="패스 673" d="M454.506,274.287a13.272,13.272,0,0,0,.012,2.718,10.53,10.53,0,0,0,.362,2.137c.092.284.268.64.594.72.352.085.5-.189.534-.473.051-.4-.2-1.077.373-1.251s.8,3.012,1.182,3.247c.3.182.71-.787.708-1.317s.136-1.581.136-1.581.13,3.22.526,3.125c.957-.229.823-3.223.823-3.223s.017,2.607.421,2.622c.831.029.77-3.027.77-3.027s-.09,2.575.366,2.593c1.2.046,1.076-3.306.615-4.426a11.581,11.581,0,0,0-4.345-4.707" fill="#ffd5b8"/>
      <g id="그룹_386" data-name="그룹 386">
        <path id="패스_674" data-name="패스 674" d="M458.378,277.505c.1.165.158.267.083.452a.092.092,0,0,1-.151.04c-.155-.132-.146-.226-.137-.437a.111.111,0,0,1,.2-.055Z" fill="#f9b995"/>
      </g>
      <g id="그룹_387" data-name="그룹 387">
        <path id="패스_675" data-name="패스 675" d="M459.906,277.577a.356.356,0,0,1-.048.34.068.068,0,0,1-.124-.016.564.564,0,0,1-.064-.292.121.121,0,0,1,.236-.032Z" fill="#f9b995"/>
      </g>
      <g id="그룹_388" data-name="그룹 388">
        <path id="패스_676" data-name="패스 676" d="M461.07,277.134a.663.663,0,0,1,.066.66.17.17,0,0,1-.308-.04,3.481,3.481,0,0,1-.017-.55.14.14,0,0,1,.259-.07Z" fill="#f9b995"/>
      </g>
    </g>
    <path id="패스_677" data-name="패스 677" d="M460.183,272.787a1.491,1.491,0,0,1,.388.272.5.5,0,0,1,.139.436.705.705,0,0,1-.277.354,8.342,8.342,0,0,1-5.374,1.847,3.557,3.557,0,0,1-.965-.126.323.323,0,0,1-.181-.106.345.345,0,0,1-.046-.161,10.328,10.328,0,0,1-.059-1.1" fill="#b72a71"/>
    <path id="패스_678" data-name="패스 678" d="M437.065,229.919s.723,3.143-7.944,3.143-8.348-3.529-8.348-3.529c-18.439,2.591-32.66,36.343-27.277,42.086,1.29,1.832,5.172,2.516,6.785,2.145a10.446,10.446,0,0,0,2.442-1.645c-1.644,3.757-5.594,12.9-7.23,20.37,4.053,3.669,7.561,3.289,13.4,3.319,4.377.022,5.237,3.736,17.109,3.736s12.733-3.714,17.11-3.736c4.762-.024,8.919,1.118,14.6-1.028-1.249-9.836-6.419-26.271-6.419-26.271s.2,5.227,2.416,6.447c1.613.371,5.495-.313,6.785-2.145C465.875,267.068,451.679,232.648,437.065,229.919Z" fill="#dd4583"/>
    <path id="패스_679" data-name="패스 679" d="M436.623,229.654c-1.168,2.467-2.762,2.994-4.826,3.408a2.97,2.97,0,0,0,.353,1.83.794.794,0,0,0,1.323.14,1.636,1.636,0,0,0,.956.612,1.8,1.8,0,0,0,1.275,0,1.334,1.334,0,0,0,.72-1.25,1.582,1.582,0,0,0,1.641.109,1.431,1.431,0,0,0,.717-.671,1.105,1.105,0,0,0-.058-1.079,1.7,1.7,0,0,0,1.233-1.431C440.2,229.809,437.317,229.265,436.623,229.654Z" fill="#ff6183"/>
    <path id="패스_680" data-name="패스 680" d="M423.021,228.54c.681,3.606,5.466,4.316,8.749,4.522a2.573,2.573,0,0,1-.648,2.036c-.528.484-1.744.666-2.09-.066a2.882,2.882,0,0,1-1.428.732,4.925,4.925,0,0,1-2.127-.116c-.647-.188-1.2-.693-1.147-1.251a3.823,3.823,0,0,1-2.614.109,2.18,2.18,0,0,1-1.142-.671.765.765,0,0,1,.092-1.079,2.422,2.422,0,0,1-1.965-1.431,1.461,1.461,0,0,1,0-1.23,2.958,2.958,0,0,1,1.157-1.008,7.2,7.2,0,0,1,3.167-.547" fill="#ff6183"/>
    <g id="그룹_392" data-name="그룹 392">
      <g id="그룹_390" data-name="그룹 390">
        <path id="패스_681" data-name="패스 681" d="M423.581,249.9a4.46,4.46,0,0,0,3.308.423c.087-.018.182-.029.277-.04a4.806,4.806,0,0,0-1.041.4,3.487,3.487,0,0,0-1.875,2.7,3.531,3.531,0,0,0,1.278,2.795,3.779,3.779,0,0,0,4.789.261,4.393,4.393,0,0,0,1.319-2.94c.044.239.1.479.148.718a3.486,3.486,0,0,0,2.07,2.557,3.529,3.529,0,0,0,3.041-.444,3.777,3.777,0,0,0,1.592-4.524,4.466,4.466,0,0,0-2.562-2.136.905.905,0,0,1-.143-.071,4.884,4.884,0,0,0,.983.177,3.491,3.491,0,0,0,3.035-1.272,3.533,3.533,0,0,0,.425-3.044,3.778,3.778,0,0,0-3.9-2.795,4.711,4.711,0,0,0-2.251,1.564,3.278,3.278,0,0,0,.66-3.321,3.53,3.53,0,0,0-2.581-1.669,3.779,3.779,0,0,0-4.178,2.354,4.3,4.3,0,0,0,.4,3.051,4.98,4.98,0,0,1-.444-.389,3.49,3.49,0,0,0-3.12-1.043,3.53,3.53,0,0,0-2.325,2.011A3.776,3.776,0,0,0,423.581,249.9Z" fill="#ff6183"/>
      </g>
      <g id="그룹_391" data-name="그룹 391">
        <path id="패스_682" data-name="패스 682" d="M432.123,251.067c-3.7.1-3.861-5.648-.156-5.749s3.861,5.648.156,5.749Z" fill="#f9c941"/>
      </g>
    </g>
    <path id="패스_683" data-name="패스 683" d="M444.277,244.863c2.9,6.214,5.577,17.3,7.089,23.627" fill="none" stroke="#b72a71" stroke-miterlimit="10" stroke-width="1"/>
    <g id="그룹_393" data-name="그룹 393">
      <path id="패스_684" data-name="패스 684" d="M434.043,261.919a.835.835,0,1,1-.835-.834A.835.835,0,0,1,434.043,261.919Z" fill="#b72a71"/>
      <path id="패스_685" data-name="패스 685" d="M434.548,270.253a.835.835,0,1,1-.834-.835A.835.835,0,0,1,434.548,270.253Z" fill="#b72a71"/>
      <path id="패스_686" data-name="패스 686" d="M434.548,278.523a.835.835,0,1,1-.834-.835A.835.835,0,0,1,434.548,278.523Z" fill="#b72a71"/>
      <path id="패스_687" data-name="패스 687" d="M434.548,286.253a.835.835,0,1,1-.834-.835A.834.834,0,0,1,434.548,286.253Z" fill="#b72a71"/>
      <path id="패스_688" data-name="패스 688" d="M433.714,294.253a.834.834,0,1,1-.835-.835A.834.834,0,0,1,433.714,294.253Z" fill="#b72a71"/>
    </g>
    <g id="그룹_394" data-name="그룹 394">
      <path id="패스_689" data-name="패스 689" d="M418.646,278.532a8.074,8.074,0,0,1,.2,3.791,5.465,5.465,0,0,1-1.84,3.318,4.76,4.76,0,0,1-1.07.618c-1.76.747-3.92.892-5.272-.546.18.192.284.495.458.7a4.49,4.49,0,0,0,.593.585,6.187,6.187,0,0,0,3.046,1.365,6.457,6.457,0,0,0,5.851-2.305,6.837,6.837,0,0,0,1.585-5.134,6.389,6.389,0,0,0-1.37-3.589" fill="#cc3a7c"/>
      <path id="패스_690" data-name="패스 690" d="M421.783,276.64a16.3,16.3,0,0,1-10.652.226l-.177,1.233a6.117,6.117,0,0,0,2.72.969,15.781,15.781,0,0,0,6.4-.321,4.621,4.621,0,0,0,1.774-.825A3.046,3.046,0,0,0,421.783,276.64Z" fill="#b72a71"/>
      <path id="패스_691" data-name="패스 691" d="M411.439,286.8a6.289,6.289,0,0,0,5.934,1.4,6.817,6.817,0,0,0,4.445-4.234,7.447,7.447,0,0,0-.62-6.148" fill="none" stroke="#b72a71" stroke-miterlimit="10" stroke-width="1"/>
      <path id="패스_692" data-name="패스 692" d="M410.445,285.287a6.3,6.3,0,0,1-.265-5.276,12.388,12.388,0,0,1,1.459-2.42" fill="none" stroke="#b72a71" stroke-miterlimit="10" stroke-width="1"/>
    </g>
    <g id="그룹_395" data-name="그룹 395">
      <path id="패스_693" data-name="패스 693" d="M446.384,278.015a11.628,11.628,0,0,0,.314,3.767,5.533,5.533,0,0,0,1.626,2.948,2.662,2.662,0,0,0,.79.423,2.612,2.612,0,0,0,3.468-1.455c-.1.219-.132.537-.223.774a5.019,5.019,0,0,1-.329.679,4.577,4.577,0,0,1-1.879,1.874,3.389,3.389,0,0,1-4.193-1.252,8.249,8.249,0,0,1-1.67-4.78,9.017,9.017,0,0,1,.493-3.773" fill="#cc3a7c"/>
      <path id="패스_694" data-name="패스 694" d="M444.058,276.7a8.079,8.079,0,0,0,7.164-1.631l.264,1.183a4.132,4.132,0,0,1-1.708,1.428,7.594,7.594,0,0,1-4.323.8,2.432,2.432,0,0,1-1.286-.5A4.373,4.373,0,0,1,444.058,276.7Z" fill="#b72a71"/>
      <path id="패스_695" data-name="패스 695" d="M452.192,284.906a3.844,3.844,0,0,1-3.811,2.408,4.99,4.99,0,0,1-3.48-3.4,10.635,10.635,0,0,1-.312-6.161" fill="none" stroke="#b72a71" stroke-miterlimit="10" stroke-width="1"/>
      <path id="패스_696" data-name="패스 696" d="M452.678,283.24a8.9,8.9,0,0,0-.447-5.242,12.27,12.27,0,0,0-1.264-2.129" fill="none" stroke="#b72a71" stroke-miterlimit="10" stroke-width="1"/>
    </g>
    <g id="그룹_396" data-name="그룹 396">
      <path id="패스_697" data-name="패스 697" d="M436.933,195.183a22.2,22.2,0,0,0-1.518-7.618c-.567-1.442-1.286-2.829-1.734-4.31a41.231,41.231,0,0,1,1.691,11.947C435.895,195.193,436.414,195.188,436.933,195.183Z" fill="#632a2a"/>
      <path id="패스_698" data-name="패스 698" d="M447.3,195.351a25.63,25.63,0,0,0-4.19-10.684,38.45,38.45,0,0,1,2.3,10.608Q446.366,195.308,447.3,195.351Z" fill="#632a2a"/>
      <path id="패스_699" data-name="패스 699" d="M454.5,195.843a23.48,23.48,0,0,0-1.035-6.2,14.271,14.271,0,0,0-6.642-8.4,22.638,22.638,0,0,1,2.726,6c.007-.081.028-.088.065,0a24.192,24.192,0,0,1,1.994,8.354C452.6,195.674,453.555,195.756,454.5,195.843Z" fill="#632a2a"/>
      <path id="패스_700" data-name="패스 700" d="M408.781,192.832a109.284,109.284,0,0,1,3.329-12.123c-3.178,5.279-5.862,11.033-6.342,17.132q.915-.154,1.847-.3A41.746,41.746,0,0,1,408.781,192.832Z" fill="#632a2a"/>
      <path id="패스_701" data-name="패스 701" d="M401.389,198.642q1.309-.26,2.665-.5a33.827,33.827,0,0,1,.728-9.834A30,30,0,0,0,401.389,198.642Z" fill="#632a2a"/>
      <path id="패스_702" data-name="패스 702" d="M415.358,196.413l.04.08q.546-.062,1.1-.12c0-.089,0-.177.008-.265a93.553,93.553,0,0,1,1.18-11.831C415.958,188.055,415.646,192.284,415.358,196.413Z" fill="#632a2a"/>
      <path id="패스_703" data-name="패스 703" d="M425.933,183.549q-.191,6.028-.382,12.058c.589-.038,1.166-.085,1.76-.118l.25-.013A53.312,53.312,0,0,0,425.933,183.549Z" fill="#632a2a"/>
    </g>
    <path id="패스_704" data-name="패스 704" d="M438.965,180.619a32.75,32.75,0,0,1,4.3,12.72" fill="none" stroke="#632a2a" stroke-miterlimit="10" stroke-width="1"/>
    <path id="패스_705" data-name="패스 705" d="M427.751,165.317a10.371,10.371,0,0,1,7.943-.7,13.734,13.734,0,0,1,6.6,4.636" fill="none" stroke="#632a2a" stroke-miterlimit="10" stroke-width="1"/>
    <path id="패스_706" data-name="패스 706" d="M428.115,166.234a8.081,8.081,0,0,1,6.245.6" fill="none" stroke="#632a2a" stroke-miterlimit="10" stroke-width="1"/>
    <path id="패스_707" data-name="패스 707" d="M414.532,168.539a15.346,15.346,0,0,1,5.337-3.312,8.346,8.346,0,0,1,6.169.216" fill="none" stroke="#632a2a" stroke-miterlimit="10" stroke-width="1"/>
    <path id="패스_708" data-name="패스 708" d="M420.817,169.049a6.121,6.121,0,0,1,5.366-2.545" fill="none" stroke="#632a2a" stroke-miterlimit="10" stroke-width="1"/>
    <path id="패스_709" data-name="패스 709" d="M430.816,213.6c-1.034,1.848.786,4.38,2.82,4.241,1.935-.132,3.142-2.388,2.664-4.148" fill="none" stroke="#c43d4b" stroke-miterlimit="10" stroke-width="1"/>
    <path id="패스_710" data-name="패스 710" d="M412.361,212.081c-.171-1.809,2.267-1.824,3.486-1.723,1.368.114,4.508.471,3.09,2.541-.947,1.383-3.424,1.729-4.921,1.278A2.469,2.469,0,0,1,412.361,212.081Z" fill="#ef9181"/>
    <path id="패스_711" data-name="패스 711" d="M445.633,210.887c-.17-1.8,2.36-1.819,3.56-1.731,1.421.1,4.452.454,3.016,2.55-.947,1.383-3.424,1.729-4.92,1.278A2.47,2.47,0,0,1,445.633,210.887Z" fill="#ef9181"/>
    <g id="그룹_397" data-name="그룹 397">
      <path id="패스_712" data-name="패스 712" d="M405.457,208.107a3.363,3.363,0,0,0-3.857-2.283,5.466,5.466,0,0,0-3.687,3.039,5.283,5.283,0,0,0-.519,1.464c-.367,2.051.965,4.085,2.674,5.279a5.762,5.762,0,0,0,3.218,1.153,3.347,3.347,0,0,0,2.923-1.557" fill="#ffd5b8"/>
      <path id="패스_713" data-name="패스 713" d="M400.024,209.347c-.141-1.984,3.044-2.148,2.7.023a3.747,3.747,0,0,1-.5,1.243.985.985,0,0,0-.157.4c-.032.446.506.667.9.884.956.532,1.6,2.876-.1,2.65a1.97,1.97,0,0,1-1.185-.73" fill="none" stroke="#f9b995" stroke-miterlimit="10" stroke-width="1"/>
      <path id="패스_714" data-name="패스 714" d="M399.752,210.856a1.632,1.632,0,0,0,.642,1.719" fill="none" stroke="#f9b995" stroke-miterlimit="10" stroke-width="1"/>
    </g>
    <path id="패스_715" data-name="패스 715" d="M404.792,266.531" fill="none" stroke="#b72a71" stroke-miterlimit="10" stroke-width="1"/>
    <path id="패스_716" data-name="패스 716" d="M416.1,247.663c-1.091,3.81-4.186,9.073-6.377,12.375a39.963,39.963,0,0,0-3.548,7.7c-.722,1.831-1.8,3.681-3.587,4.5" fill="none" stroke="#b72a71" stroke-miterlimit="10" stroke-width="1"/>
  </g>
</svg>
